<svg width="503" height="471" viewBox="0 0 503 471" fill="none" xmlns="http://www.w3.org/2000/svg">
<path fill-rule="evenodd" clip-rule="evenodd" d="M100 104L251.554 366.5L403.109 104L100 104ZM121.651 116.5L251.554 341.5L381.458 116.5L121.651 116.5Z" fill="#17223D"/>
<ellipse cx="100" cy="104.5" rx="100" ry="104.5" fill="#2945C3"/>
<circle cx="100" cy="100" r="100" fill="#5572F3"/>
<circle cx="100" cy="100" r="75" fill="#C4C4C4"/>
<ellipse cx="100" cy="104.5" rx="75" ry="70.5" fill="white"/>
<path d="M127.704 82.439C127.225 82.2512 126.71 82.1688 126.196 82.1974C125.498 82.2462 124.936 82.5281 124.601 82.9906C122.637 85.734 121.027 90.9143 119.729 95.0781C119.134 97.0026 118.333 99.5787 117.755 100.801C117.151 97.376 117.833 84.8272 118.098 79.9947L118.102 79.9166C118.285 76.5594 118.31 75.97 118.271 75.7113C117.979 73.8698 117.238 72.6605 116.068 72.1199C114.885 71.5707 113.349 71.8148 111.694 72.8069C110.865 73.3072 110.635 75.023 109.923 82.8015L109.921 82.8356C109.529 87.1093 108.625 96.9501 107.515 98.5902C106.262 96.296 104.538 83.2689 103.793 77.6297C103.273 73.6807 102.969 71.4133 102.765 70.7287C102.336 69.2935 100.524 68.0732 98.7302 68.0049C97.2363 67.9316 96.0118 68.6883 95.4265 70.0038C94.3318 71.218 94.7188 75.2415 95.9286 84.7723C96.5041 89.3095 97.6918 98.6781 96.9449 99.73C95.4523 99.5677 92.8918 93.6991 89.3347 82.2804C88.3355 79.0831 88.027 78.1215 87.7208 77.7005C87.1159 76.2336 85.0612 75.1024 83.2196 75.2305C83.0647 75.2412 82.9105 75.2612 82.758 75.2903C81.7943 75.4807 79.5939 76.3654 80.0641 80.4474C81.3621 86.1062 82.7739 90.2602 84.1429 94.2934L84.171 94.374C84.9902 96.7902 85.7653 99.0723 86.4853 101.604C88.1812 107.584 87.5212 111.294 87.5139 111.337C87.4576 111.717 87.3388 111.95 87.1612 112.032C87.0856 112.065 87.0047 112.083 86.9225 112.087C86.3837 112.124 85.578 111.77 85.1629 111.538C84.2127 109.729 79.4861 101.111 75.2029 99.9155L75.0486 99.8704L74.8931 99.885C73.3221 100.033 72.1674 100.625 71.4608 101.644C70.3416 103.254 70.8057 105.307 70.9172 105.719L70.9808 105.866C71.0151 105.928 74.451 112.169 74.9825 115.072C75.4404 117.562 77.8123 120.259 79.72 122.426L79.7984 122.515C80.4204 123.223 80.9567 123.837 81.3804 124.404C86.9139 130.156 95.6641 134.993 95.7351 135.033C96.8274 135.835 97.4335 136.611 97.4984 137.279C97.5282 137.531 97.4579 137.785 97.3025 137.986L97.1127 138.184L98.3225 139.356L121.408 137.74L122.392 133.244C125.436 120.55 124.801 109.726 124.79 109.655C124.802 109.256 125.654 105.405 126.34 102.293L126.361 102.213C127.729 96.0141 129.428 88.3015 129.755 85.3691C129.897 84.1146 129.091 82.9626 127.704 82.439V82.439Z" fill="#3B4262"/>
<ellipse cx="252" cy="366.5" rx="100" ry="104.5" fill="#9E1633"/>
<circle cx="252" cy="362" r="100" fill="#DE415D"/>
<circle cx="252" cy="362" r="75" fill="#C4C4C4"/>
<ellipse cx="252" cy="366.5" rx="75" ry="70.5" fill="white"/>
<path d="M279.136 348.788C278.318 338.984 266.733 339.986 266.733 339.986C261.843 331.794 254.204 337.727 254.204 337.727C248.335 329.699 240.978 337.139 240.978 337.139C228.29 335.838 228.782 345.695 228.782 345.695C228.484 348.829 230.57 358.522 230.57 358.522C228.688 352.935 224.606 357.573 224.606 357.573C219.586 364.933 223.364 368.961 223.364 368.961C230.156 376.525 244.628 385.603 244.628 385.603C249.869 388.456 247.652 391 247.652 391L279.35 386.023L280.078 380.31C284.897 366.462 279.136 348.788 279.136 348.788V348.788Z" fill="#3B4262"/>
<ellipse cx="403" cy="104.5" rx="100" ry="104.5" fill="#C76C1C"/>
<circle cx="403" cy="100" r="100" fill="#EBA00F"/>
<circle cx="403" cy="100" r="75" fill="#C4C4C4"/>
<ellipse cx="403" cy="104.5" rx="75" ry="70.5" fill="white"/>
<path d="M389.436 96.1334L396.509 86.2675C393.569 85.781 388.171 85.6731 383.749 90.0603C376.779 96.9764 373.955 111.915 373.367 115.532L391.082 133.109C394.272 132.837 408.392 130.967 421.999 117.469C422.142 117.177 425.458 114.748 422.747 112.059C421.453 110.776 419.313 110.8 417.992 112.111C417.319 112.779 416.273 112.788 415.614 112.134C414.955 111.481 414.965 110.443 415.638 109.776L420.446 105.005C422.888 102.582 420.586 98.4923 417.175 99.4748L413.24 102.817C412.521 103.439 411.452 103.332 410.861 102.653C410.251 101.953 410.381 100.891 411.076 100.293C424.826 88.3251 422.818 89.766 431.665 81.5404C434.969 78.8098 430.812 73.9818 427.555 76.7452L406.155 95.8379C405.533 96.3632 404.579 96.3737 403.967 95.8145C403.26 95.2084 403.244 94.3349 403.706 93.6455L418.632 70.624C420.813 67.693 416.52 64.4372 414.221 67.3917L392.153 98.0151C391.621 98.7772 390.548 98.9531 389.818 98.4196C389.639 98.2965 389.488 98.139 389.372 97.9564C389.256 97.7738 389.178 97.5698 389.142 97.3566C389.107 97.1434 389.115 96.9253 389.166 96.7152C389.216 96.505 389.309 96.3072 389.438 96.1334H389.436Z" fill="#3B4262"/>
</svg>
