<svg width="200" height="209" viewBox="0 0 200 209" fill="none" xmlns="http://www.w3.org/2000/svg">
<ellipse cx="100" cy="104.5" rx="100" ry="104.5" fill="#C76C1C"/>
<circle cx="100" cy="100" r="100" fill="#EBA00F"/>
<circle cx="100" cy="100" r="75" fill="#C4C4C4"/>
<ellipse cx="100" cy="104.5" rx="75" ry="70.5" fill="white"/>
<path d="M127.136 86.7878C126.318 76.9843 114.733 77.9857 114.733 77.9857C109.843 69.7939 102.204 75.7274 102.204 75.7274C96.3351 67.6991 88.9776 75.1389 88.9776 75.1389C76.29 73.8384 76.7819 83.6951 76.7819 83.6951C76.4837 86.829 78.5696 96.5223 78.5696 96.5223C76.6876 90.9352 72.6062 95.5729 72.6062 95.5729C67.5857 102.933 71.3638 106.961 71.3638 106.961C78.1555 114.525 92.6283 123.603 92.6283 123.603C97.8693 126.456 95.6521 129 95.6521 129L127.35 124.023L128.078 118.31C132.897 104.462 127.136 86.7878 127.136 86.7878V86.7878Z" fill="#3B4262"/>
</svg>
