<svg width="200" height="209" viewBox="0 0 200 209" fill="none" xmlns="http://www.w3.org/2000/svg">
<ellipse cx="100" cy="104.5" rx="100" ry="104.5" fill="#9E1633"/>
<circle cx="100" cy="100" r="100" fill="#DE415D"/>
<circle cx="100" cy="100" r="75" fill="#C4C4C4"/>
<ellipse cx="100" cy="104.5" rx="75" ry="70.5" fill="white"/>
<path d="M86.4365 96.1334L93.5094 86.2675C90.5694 85.781 85.1706 85.6731 80.7494 90.0603C73.7788 96.9763 70.9553 111.915 70.3671 115.532L88.0824 133.109C91.2718 132.837 105.392 130.967 118.999 117.469C119.142 117.177 122.458 114.748 119.747 112.059C118.453 110.776 116.313 110.8 114.992 112.111C114.319 112.779 113.273 112.788 112.614 112.134C111.955 111.481 111.965 110.443 112.638 109.776L117.446 105.005C119.888 102.582 117.586 98.4923 114.175 99.4748L110.24 102.817C109.521 103.439 108.452 103.332 107.861 102.653C107.251 101.953 107.381 100.891 108.076 100.293C121.826 88.3251 119.818 89.766 128.665 81.5403C131.969 78.8098 127.812 73.9818 124.555 76.7452L103.155 95.8379C102.533 96.3632 101.579 96.3737 100.967 95.8145C100.26 95.2083 100.244 94.3349 100.706 93.6455L115.632 70.624C117.813 67.693 113.52 64.4372 111.221 67.3917L89.1529 98.0151C88.6212 98.7772 87.5482 98.953 86.8176 98.4196C86.6394 98.2965 86.4878 98.1389 86.3718 97.9563C86.2558 97.7738 86.1778 97.5698 86.1423 97.3566C86.1069 97.1434 86.1148 96.9253 86.1655 96.7151C86.2162 96.505 86.3088 96.3072 86.4376 96.1334H86.4365Z" fill="#3B4262"/>
</svg>
